<svg width="24" height="24" viewBox="0 0 24 24" fill="none" xmlns="http://www.w3.org/2000/svg">
<path d="M4.5 21C4.08333 21 3.72917 20.8542 3.4375 20.5625C3.14583 20.2708 3 19.9167 3 19.5V4.5C3 4.08333 3.14583 3.72917 3.4375 3.4375C3.72917 3.14583 4.08333 3 4.5 3H14.725V4.5H4.5V19.5H19.5V9.3H21V19.5C21 19.9167 20.8542 20.2708 20.5625 20.5625C20.2708 20.8542 19.9167 21 19.5 21H4.5ZM17.5 8.55V6.525H15.475V5.025H17.5V3H19V5.025H21.025V6.525H19V8.55H17.5ZM6 16.95H18L14.4 12.15L11.225 16.325L8.875 13.225L6 16.95ZM4.5 4.5V19.5V4.5Z" fill="black"/>
</svg>
