<svg width="25" height="25" viewBox="0 0 25 25" fill="none" xmlns="http://www.w3.org/2000/svg">
<path d="M7.44566 2.50448C7.44254 2.5076 7.32687 2.52323 7.18932 2.53729C6.15455 2.64667 5.25577 3.01073 4.45391 3.6451C4.25696 3.80135 3.87244 4.17792 3.70675 4.37792C3.29097 4.87792 2.96584 5.46542 2.76889 6.06854C2.64228 6.45761 2.58132 6.74042 2.52818 7.19354C2.5016 7.41386 2.50004 7.73573 2.50004 12.4904C2.50004 18.0264 2.49535 17.6811 2.58601 18.2092C2.97366 20.4389 4.83999 22.1967 7.07834 22.4436C7.19869 22.4561 7.355 22.4748 7.42378 22.4826C7.59416 22.5045 17.3979 22.5045 17.5682 22.4826C17.637 22.4748 17.7933 22.4561 17.9137 22.4436C19.9989 22.2139 21.7823 20.6639 22.3122 18.6186C22.3841 18.3373 22.4279 18.1045 22.4513 17.8576C22.4623 17.7592 22.4764 17.6264 22.4842 17.5639C22.5061 17.4076 22.5045 7.59667 22.4842 7.42792C22.4764 7.35917 22.4576 7.20292 22.4451 7.08261C22.3451 6.16854 21.973 5.26542 21.39 4.51073C21.2259 4.29823 20.8757 3.93104 20.6804 3.76542C19.9488 3.1451 19.0766 2.73417 18.17 2.58573C17.673 2.50292 18.009 2.5076 12.5257 2.50292C9.73559 2.49979 7.45035 2.50135 7.44566 2.50448ZM17.7589 4.22479C18.6155 4.33729 19.408 4.76229 19.9645 5.41229C20.3912 5.91073 20.6569 6.47948 20.7757 7.15448C20.8023 7.31229 20.8038 7.53573 20.8038 12.506V17.6936L20.7679 17.8936C20.6335 18.6357 20.3052 19.2717 19.7878 19.7873C19.2767 20.2998 18.6562 20.6217 17.9043 20.767L17.7246 20.8014L12.6132 20.8076C8.85713 20.8107 7.4566 20.8076 7.32999 20.7951C5.85287 20.642 4.62585 19.5623 4.28509 18.1154C4.19131 17.7186 4.196 18.042 4.196 12.506C4.196 8.04354 4.19912 7.41542 4.21944 7.25292C4.40858 5.80448 5.46992 4.62792 6.89233 4.29042C7.2706 4.19979 6.95954 4.20448 12.4835 4.20292C16.9727 4.20135 17.5964 4.20448 17.7589 4.22479Z" fill="#8E8E93"/>
<path d="M17.7473 5.8751C17.3409 5.97979 17.0189 6.30792 16.9252 6.71104C16.8908 6.86104 16.8939 7.10167 16.933 7.25323C17.0236 7.60479 17.2972 7.90636 17.6364 8.02979C18.0615 8.18448 18.5039 8.08604 18.8259 7.76417C19.0525 7.53917 19.1541 7.29229 19.1541 6.97042C19.1541 6.70479 19.0822 6.48604 18.9275 6.28135C18.6602 5.92979 18.1772 5.7626 17.7473 5.8751Z" fill="#8E8E93"/>
<path d="M12.1689 7.55574C10.8325 7.65574 9.61326 8.26668 8.74731 9.27137C7.70004 10.487 7.30457 12.1292 7.6844 13.6854C7.85165 14.3714 8.17521 15.0307 8.6207 15.5917C8.78795 15.8026 9.20686 16.2229 9.41787 16.3886C10.1291 16.9526 10.9544 17.3026 11.8579 17.4276C12.1142 17.4636 12.6332 17.4745 12.9051 17.4526C14.3088 17.3339 15.5483 16.6636 16.4299 15.5448C17.0098 14.8089 17.3709 13.8792 17.4537 12.9057C17.4756 12.6339 17.4647 12.1151 17.4287 11.8589C17.3037 10.9557 16.9535 10.1307 16.3893 9.4198C16.2236 9.20887 15.8031 8.78855 15.5936 8.62449C14.6933 7.91355 13.5945 7.53386 12.4675 7.54793C12.3424 7.54949 12.208 7.55261 12.1689 7.55574ZM12.9942 9.06824C14.029 9.21824 14.9543 9.8323 15.4842 10.7245C15.8172 11.2823 15.9735 11.8464 15.9735 12.4979C15.975 12.8948 15.9407 13.1339 15.8328 13.5011C15.4795 14.7089 14.437 15.662 13.2006 15.9104C12.8395 15.9823 12.3455 15.9964 12.0126 15.9448C10.8418 15.7636 9.88055 15.0542 9.37254 13.9979C9.13964 13.512 9.03648 13.0542 9.03648 12.5057C9.03648 11.9464 9.14121 11.4901 9.38661 10.9901C9.73049 10.2839 10.2823 9.7323 10.9888 9.38855C11.3952 9.19012 11.8141 9.07605 12.2705 9.03855C12.4143 9.02762 12.8238 9.04324 12.9942 9.06824Z" fill="#8E8E93"/>
</svg>
