<svg width="19" height="18" viewBox="0 0 19 18" fill="none" xmlns="http://www.w3.org/2000/svg">
<path d="M1.5 18C1.08333 18 0.729167 17.8542 0.4375 17.5625C0.145833 17.2708 0 16.9167 0 16.5V1.5C0 1.08333 0.145833 0.729167 0.4375 0.4375C0.729167 0.145833 1.08333 0 1.5 0H11.725V1.5H1.5V16.5H16.5V6.3H18V16.5C18 16.9167 17.8542 17.2708 17.5625 17.5625C17.2708 17.8542 16.9167 18 16.5 18H1.5ZM14.5 5.55V3.525H12.475V2.025H14.5V0H16V2.025H18.025V3.525H16V5.55H14.5ZM3 13.95H15L11.4 9.15L8.225 13.325L5.875 10.225L3 13.95ZM1.5 1.5V16.5V1.5Z" fill="black"/>
</svg>
