<svg width="24" height="24" viewBox="0 0 24 24" fill="none" xmlns="http://www.w3.org/2000/svg">
<path d="M19.9 20.9746L13.325 14.3996C12.825 14.8329 12.2417 15.1704 11.575 15.4121C10.9083 15.6538 10.2 15.7746 9.45 15.7746C7.65 15.7746 6.125 15.1496 4.875 13.8996C3.625 12.6496 3 11.1413 3 9.37461C3 7.60794 3.625 6.09961 4.875 4.84961C6.125 3.59961 7.64167 2.97461 9.425 2.97461C11.1917 2.97461 12.6958 3.59961 13.9375 4.84961C15.1792 6.09961 15.8 7.60794 15.8 9.37461C15.8 10.0913 15.6833 10.7829 15.45 11.4496C15.2167 12.1163 14.8667 12.7413 14.4 13.3246L21 19.8746L19.9 20.9746ZM9.425 14.2746C10.775 14.2746 11.925 13.7954 12.875 12.8371C13.825 11.8788 14.3 10.7246 14.3 9.37461C14.3 8.02461 13.825 6.87044 12.875 5.91211C11.925 4.95378 10.775 4.47461 9.425 4.47461C8.05833 4.47461 6.89583 4.95378 5.9375 5.91211C4.97917 6.87044 4.5 8.02461 4.5 9.37461C4.5 10.7246 4.97917 11.8788 5.9375 12.8371C6.89583 13.7954 8.05833 14.2746 9.425 14.2746Z" fill="#1C1C1E"/>
</svg>
