<svg width="24" height="24" viewBox="0 0 24 24" fill="none" xmlns="http://www.w3.org/2000/svg">
<path d="M18.6 6.93131H15.9V6.06246C15.898 5.52538 15.6761 5.01083 15.2827 4.63105C14.8893 4.25127 14.3563 4.03706 13.8 4.03516H10.2C9.64365 4.03706 9.11066 4.25127 8.71726 4.63105C8.32386 5.01083 8.10198 5.52538 8.1 6.06246V6.93131H5.4C5.16131 6.93131 4.93239 7.02285 4.7636 7.18579C4.59482 7.34873 4.5 7.56972 4.5 7.80016C4.5 8.03059 4.59482 8.25158 4.7636 8.41452C4.93239 8.57746 5.16131 8.669 5.4 8.669H5.7V18.5159C5.70197 18.8994 5.86064 19.2666 6.14152 19.5378C6.4224 19.8089 6.80278 19.9621 7.2 19.964H16.8C17.1972 19.9621 17.5776 19.8089 17.8585 19.5378C18.1394 19.2666 18.298 18.8994 18.3 18.5159V8.669H18.6C18.8387 8.669 19.0676 8.57746 19.2364 8.41452C19.4052 8.25158 19.5 8.03059 19.5 7.80016C19.5 7.56972 19.4052 7.34873 19.2364 7.18579C19.0676 7.02285 18.8387 6.93131 18.6 6.93131ZM9.9 6.06246C9.9 5.98565 9.93161 5.91199 9.98787 5.85767C10.0441 5.80336 10.1204 5.77285 10.2 5.77285H13.8C13.8796 5.77285 13.9559 5.80336 14.0121 5.85767C14.0684 5.91199 14.1 5.98565 14.1 6.06246V6.93131H9.9V6.06246ZM16.5 18.2263H7.5V8.669H16.5V18.2263ZM11.1 10.9859V15.6198C11.1 15.8502 11.0052 16.0712 10.8364 16.2341C10.6676 16.3971 10.4387 16.4886 10.2 16.4886C9.96131 16.4886 9.73239 16.3971 9.5636 16.2341C9.39482 16.0712 9.3 15.8502 9.3 15.6198V10.9859C9.3 10.7555 9.39482 10.5345 9.5636 10.3716C9.73239 10.2086 9.96131 10.1171 10.2 10.1171C10.4387 10.1171 10.6676 10.2086 10.8364 10.3716C11.0052 10.5345 11.1 10.7555 11.1 10.9859ZM14.7 10.9859V15.6198C14.7 15.8502 14.6052 16.0712 14.4364 16.2341C14.2676 16.3971 14.0387 16.4886 13.8 16.4886C13.5613 16.4886 13.3324 16.3971 13.1636 16.2341C12.9948 16.0712 12.9 15.8502 12.9 15.6198V10.9859C12.9 10.7555 12.9948 10.5345 13.1636 10.3716C13.3324 10.2086 13.5613 10.1171 13.8 10.1171C14.0387 10.1171 14.2676 10.2086 14.4364 10.3716C14.6052 10.5345 14.7 10.7555 14.7 10.9859Z" fill="#1C1C1E"/>
</svg>
