<svg width="16" height="16" viewBox="0 0 16 16" fill="none" xmlns="http://www.w3.org/2000/svg">
<path d="M14.6 2.93131H11.9V2.06246C11.898 1.52538 11.6761 1.01083 11.2827 0.631049C10.8893 0.251268 10.3563 0.0370642 9.8 0.0351562H6.2C5.64365 0.0370642 5.11066 0.251268 4.71726 0.631049C4.32386 1.01083 4.10198 1.52538 4.1 2.06246V2.93131H1.4C1.16131 2.93131 0.932387 3.02285 0.763604 3.18579C0.594821 3.34873 0.5 3.56972 0.5 3.80016C0.5 4.03059 0.594821 4.25158 0.763604 4.41452C0.932387 4.57746 1.16131 4.669 1.4 4.669H1.7V14.5159C1.70197 14.8994 1.86064 15.2666 2.14152 15.5378C2.4224 15.8089 2.80278 15.9621 3.2 15.964H12.8C13.1972 15.9621 13.5776 15.8089 13.8585 15.5378C14.1394 15.2666 14.298 14.8994 14.3 14.5159V4.669H14.6C14.8387 4.669 15.0676 4.57746 15.2364 4.41452C15.4052 4.25158 15.5 4.03059 15.5 3.80016C15.5 3.56972 15.4052 3.34873 15.2364 3.18579C15.0676 3.02285 14.8387 2.93131 14.6 2.93131ZM5.9 2.06246C5.9 1.98565 5.93161 1.91199 5.98787 1.85767C6.04413 1.80336 6.12044 1.77285 6.2 1.77285H9.8C9.87957 1.77285 9.95587 1.80336 10.0121 1.85767C10.0684 1.91199 10.1 1.98565 10.1 2.06246V2.93131H5.9V2.06246ZM12.5 14.2263H3.5V4.669H12.5V14.2263ZM7.1 6.98592V11.6198C7.1 11.8502 7.00518 12.0712 6.8364 12.2341C6.66761 12.3971 6.43869 12.4886 6.2 12.4886C5.96131 12.4886 5.73239 12.3971 5.5636 12.2341C5.39482 12.0712 5.3 11.8502 5.3 11.6198V6.98592C5.3 6.75549 5.39482 6.5345 5.5636 6.37156C5.73239 6.20862 5.96131 6.11708 6.2 6.11708C6.43869 6.11708 6.66761 6.20862 6.8364 6.37156C7.00518 6.5345 7.1 6.75549 7.1 6.98592ZM10.7 6.98592V11.6198C10.7 11.8502 10.6052 12.0712 10.4364 12.2341C10.2676 12.3971 10.0387 12.4886 9.8 12.4886C9.56131 12.4886 9.33239 12.3971 9.1636 12.2341C8.99482 12.0712 8.9 11.8502 8.9 11.6198V6.98592C8.9 6.75549 8.99482 6.5345 9.1636 6.37156C9.33239 6.20862 9.56131 6.11708 9.8 6.11708C10.0387 6.11708 10.2676 6.20862 10.4364 6.37156C10.6052 6.5345 10.7 6.75549 10.7 6.98592Z" fill="#1C1C1E"/>
</svg>
